
<!-- <svg width="100%" height="100%" viewBox="0 0 600 400" xmlns="http://www.w3.org/2000/svg" preserveAspectRatio="none">
  <defs>
    <linearGradient id="waveGradient" x1="0%" y1="0%" x2="100%" y2="0%">
      <stop offset="0%" stop-color="#ffffff" />
      <stop offset="100%" stop-color="#f9f9f9" />
    </linearGradient>
  </defs>
  <rect width="100%" height="100%" fill="url(#waveGradient)" />
  <path d="M0,100 C150,200 450,0 600,100 L600,400 L0,400 Z" fill="none" stroke="#e0e0e0" stroke-width="1" opacity="0.7" />
  <path d="M0,150 C150,250 450,50 600,150 L600,400 L0,400 Z" fill="none" stroke="#e0e0e0" stroke-width="1" opacity="0.5" />
  <path d="M0,200 C150,300 450,100 600,200 L600,400 L0,400 Z" fill="none" stroke="#e0e0e0" stroke-width="1" opacity="0.3" />
</svg> -->
 <svg className="wave-background" viewBox="0 0 800 400" xmlns="http://www.w3.org/2000/svg" preserveAspectRatio="none">
    <defs>
      <style>
        {`.wave-background:hover path { stroke: white; }`}
      </style>
    </defs>
    <g fill="none" stroke="#ccc" strokeWidth="1">
      <path d="M0,200 Q200,100 400,200 T800,200, " opacity="0.6"/>
      <path d="M0,210 Q200,110 400,210 T800,210" opacity="0.5"/>
      <path d="M0,220 Q200,120 400,220 T800,220" opacity="0.5"/>
      <path d="M0,230 Q200,130 400,230 T800,230" opacity="0.5"/>
      <path d="M0,240 Q200,140 400,240 T800,240" opacity="0.5"/>
      <path d="M0,250 Q200,150 400,250 T800,250" opacity="0.3"/>
      <path d="M0,260 Q200,160 400,260 T800,260" opacity="0.3"/>
      <path d="M0,270 Q200,170 400,270 T800,270" opacity="0.3"/>
      <path d="M0,280 Q200,180 400,280 T800,280" opacity="0.3"/>
      <path d="M0,290 Q200,190 400,290 T800,290" opacity="0.2"/>
    </g>
  </svg>
